<mxfile host="app.diagrams.net" modified="2022-11-02T05:42:45.492Z" agent="5.0 (Windows NT 10.0; Win64; x64) AppleWebKit/537.36 (KHTML, like Gecko) Chrome/106.0.0.0 Safari/537.36" etag="zF5xMvnotiZnwBM5mxyw" version="20.5.1" type="github">
  <diagram id="EQyt5RuGQZ_P9TMBXGJ6" name="Page-1">
    <mxGraphModel dx="2272" dy="737" grid="1" gridSize="10" guides="1" tooltips="1" connect="1" arrows="1" fold="1" page="1" pageScale="1" pageWidth="850" pageHeight="1100" math="0" shadow="0">
      <root>
        <mxCell id="0" />
        <mxCell id="1" parent="0" />
        <mxCell id="ODThRyg3SfI3ghVe2F5W-37" style="edgeStyle=orthogonalEdgeStyle;rounded=0;orthogonalLoop=1;jettySize=auto;html=1;entryX=0;entryY=0.5;entryDx=0;entryDy=0;" parent="1" source="ODThRyg3SfI3ghVe2F5W-1" target="ODThRyg3SfI3ghVe2F5W-3" edge="1">
          <mxGeometry relative="1" as="geometry" />
        </mxCell>
        <mxCell id="ODThRyg3SfI3ghVe2F5W-1" value="Start" style="ellipse;whiteSpace=wrap;html=1;" parent="1" vertex="1">
          <mxGeometry x="-120" y="205" width="120" height="80" as="geometry" />
        </mxCell>
        <mxCell id="ODThRyg3SfI3ghVe2F5W-2" value="End" style="ellipse;whiteSpace=wrap;html=1;" parent="1" vertex="1">
          <mxGeometry x="910" y="200" width="120" height="80" as="geometry" />
        </mxCell>
        <mxCell id="ODThRyg3SfI3ghVe2F5W-20" style="edgeStyle=orthogonalEdgeStyle;rounded=0;orthogonalLoop=1;jettySize=auto;html=1;entryX=0;entryY=0.5;entryDx=0;entryDy=0;" parent="1" source="ODThRyg3SfI3ghVe2F5W-3" target="ODThRyg3SfI3ghVe2F5W-19" edge="1">
          <mxGeometry relative="1" as="geometry">
            <Array as="points">
              <mxPoint x="100" y="340" />
            </Array>
          </mxGeometry>
        </mxCell>
        <mxCell id="ODThRyg3SfI3ghVe2F5W-35" style="edgeStyle=orthogonalEdgeStyle;rounded=0;orthogonalLoop=1;jettySize=auto;html=1;entryX=0;entryY=0.5;entryDx=0;entryDy=0;" parent="1" source="ODThRyg3SfI3ghVe2F5W-3" target="ODThRyg3SfI3ghVe2F5W-2" edge="1">
          <mxGeometry relative="1" as="geometry">
            <Array as="points">
              <mxPoint x="100" y="160" />
              <mxPoint x="880" y="160" />
              <mxPoint x="880" y="240" />
            </Array>
          </mxGeometry>
        </mxCell>
        <mxCell id="ODThRyg3SfI3ghVe2F5W-3" value="Branching" style="rounded=1;whiteSpace=wrap;html=1;" parent="1" vertex="1">
          <mxGeometry x="40" y="210" width="120" height="70" as="geometry" />
        </mxCell>
        <mxCell id="ODThRyg3SfI3ghVe2F5W-25" style="edgeStyle=orthogonalEdgeStyle;rounded=0;orthogonalLoop=1;jettySize=auto;html=1;" parent="1" source="ODThRyg3SfI3ghVe2F5W-4" target="ODThRyg3SfI3ghVe2F5W-24" edge="1">
          <mxGeometry relative="1" as="geometry" />
        </mxCell>
        <mxCell id="ODThRyg3SfI3ghVe2F5W-4" value="Download source files (from gg drive,...) to local" style="rounded=1;whiteSpace=wrap;html=1;" parent="1" vertex="1">
          <mxGeometry x="240" y="260" width="120" height="60" as="geometry" />
        </mxCell>
        <mxCell id="ODThRyg3SfI3ghVe2F5W-27" style="edgeStyle=orthogonalEdgeStyle;rounded=0;orthogonalLoop=1;jettySize=auto;html=1;" parent="1" source="ODThRyg3SfI3ghVe2F5W-6" target="ODThRyg3SfI3ghVe2F5W-26" edge="1">
          <mxGeometry relative="1" as="geometry" />
        </mxCell>
        <mxCell id="ODThRyg3SfI3ghVe2F5W-6" value="Download source files (from gg drive,...) to local" style="rounded=1;whiteSpace=wrap;html=1;" parent="1" vertex="1">
          <mxGeometry x="240" y="360" width="120" height="60" as="geometry" />
        </mxCell>
        <mxCell id="ODThRyg3SfI3ghVe2F5W-13" value="" style="endArrow=none;dashed=1;html=1;dashPattern=1 3;strokeWidth=2;rounded=0;" parent="1" edge="1">
          <mxGeometry width="50" height="50" relative="1" as="geometry">
            <mxPoint x="200" y="440" as="sourcePoint" />
            <mxPoint x="200" y="240" as="targetPoint" />
          </mxGeometry>
        </mxCell>
        <mxCell id="ODThRyg3SfI3ghVe2F5W-14" value="" style="endArrow=none;dashed=1;html=1;dashPattern=1 3;strokeWidth=2;rounded=0;" parent="1" edge="1">
          <mxGeometry width="50" height="50" relative="1" as="geometry">
            <mxPoint x="550" y="440" as="sourcePoint" />
            <mxPoint x="550" y="240" as="targetPoint" />
          </mxGeometry>
        </mxCell>
        <mxCell id="ODThRyg3SfI3ghVe2F5W-21" style="edgeStyle=orthogonalEdgeStyle;rounded=0;orthogonalLoop=1;jettySize=auto;html=1;entryX=0;entryY=0.5;entryDx=0;entryDy=0;" parent="1" source="ODThRyg3SfI3ghVe2F5W-19" target="ODThRyg3SfI3ghVe2F5W-4" edge="1">
          <mxGeometry relative="1" as="geometry">
            <Array as="points">
              <mxPoint x="210" y="290" />
            </Array>
          </mxGeometry>
        </mxCell>
        <mxCell id="ODThRyg3SfI3ghVe2F5W-22" style="edgeStyle=orthogonalEdgeStyle;rounded=0;orthogonalLoop=1;jettySize=auto;html=1;entryX=0;entryY=0.5;entryDx=0;entryDy=0;" parent="1" source="ODThRyg3SfI3ghVe2F5W-19" target="ODThRyg3SfI3ghVe2F5W-6" edge="1">
          <mxGeometry relative="1" as="geometry">
            <Array as="points">
              <mxPoint x="210" y="390" />
            </Array>
          </mxGeometry>
        </mxCell>
        <mxCell id="ODThRyg3SfI3ghVe2F5W-19" value="" style="rounded=1;whiteSpace=wrap;html=1;" parent="1" vertex="1">
          <mxGeometry x="200" y="330" width="20" height="20" as="geometry" />
        </mxCell>
        <mxCell id="ODThRyg3SfI3ghVe2F5W-23" value="" style="endArrow=none;dashed=1;html=1;dashPattern=1 3;strokeWidth=2;rounded=0;" parent="1" edge="1">
          <mxGeometry width="50" height="50" relative="1" as="geometry">
            <mxPoint x="550" y="240" as="sourcePoint" />
            <mxPoint x="200" y="240" as="targetPoint" />
          </mxGeometry>
        </mxCell>
        <mxCell id="ODThRyg3SfI3ghVe2F5W-29" style="edgeStyle=orthogonalEdgeStyle;rounded=0;orthogonalLoop=1;jettySize=auto;html=1;entryX=0;entryY=0.5;entryDx=0;entryDy=0;" parent="1" source="ODThRyg3SfI3ghVe2F5W-24" target="ODThRyg3SfI3ghVe2F5W-28" edge="1">
          <mxGeometry relative="1" as="geometry" />
        </mxCell>
        <mxCell id="ODThRyg3SfI3ghVe2F5W-24" value="import into mongodb&lt;br&gt;(Bash command)" style="rounded=1;whiteSpace=wrap;html=1;" parent="1" vertex="1">
          <mxGeometry x="400" y="260" width="120" height="60" as="geometry" />
        </mxCell>
        <mxCell id="ODThRyg3SfI3ghVe2F5W-30" style="edgeStyle=orthogonalEdgeStyle;rounded=0;orthogonalLoop=1;jettySize=auto;html=1;entryX=0;entryY=0.5;entryDx=0;entryDy=0;" parent="1" source="ODThRyg3SfI3ghVe2F5W-26" target="ODThRyg3SfI3ghVe2F5W-28" edge="1">
          <mxGeometry relative="1" as="geometry" />
        </mxCell>
        <mxCell id="ODThRyg3SfI3ghVe2F5W-26" value="import into mongodb&lt;br&gt;(Bash command)" style="rounded=1;whiteSpace=wrap;html=1;" parent="1" vertex="1">
          <mxGeometry x="400" y="360" width="120" height="60" as="geometry" />
        </mxCell>
        <mxCell id="ODThRyg3SfI3ghVe2F5W-33" style="edgeStyle=orthogonalEdgeStyle;rounded=0;orthogonalLoop=1;jettySize=auto;html=1;entryX=0;entryY=0.5;entryDx=0;entryDy=0;" parent="1" source="ODThRyg3SfI3ghVe2F5W-28" target="ODThRyg3SfI3ghVe2F5W-32" edge="1">
          <mxGeometry relative="1" as="geometry" />
        </mxCell>
        <mxCell id="ODThRyg3SfI3ghVe2F5W-28" value="Spark_process &lt;br&gt;(&lt;b&gt;join&lt;/b&gt;, transform,...) then write file to local&amp;nbsp;" style="rounded=1;whiteSpace=wrap;html=1;" parent="1" vertex="1">
          <mxGeometry x="560" y="310" width="120" height="60" as="geometry" />
        </mxCell>
        <mxCell id="ODThRyg3SfI3ghVe2F5W-31" value="" style="endArrow=none;dashed=1;html=1;dashPattern=1 3;strokeWidth=2;rounded=0;" parent="1" edge="1">
          <mxGeometry width="50" height="50" relative="1" as="geometry">
            <mxPoint x="550" y="440" as="sourcePoint" />
            <mxPoint x="200" y="440" as="targetPoint" />
          </mxGeometry>
        </mxCell>
        <mxCell id="ODThRyg3SfI3ghVe2F5W-36" style="edgeStyle=orthogonalEdgeStyle;rounded=0;orthogonalLoop=1;jettySize=auto;html=1;" parent="1" source="ODThRyg3SfI3ghVe2F5W-32" edge="1">
          <mxGeometry relative="1" as="geometry">
            <mxPoint x="910" y="240" as="targetPoint" />
            <Array as="points">
              <mxPoint x="880" y="340" />
              <mxPoint x="880" y="240" />
            </Array>
          </mxGeometry>
        </mxCell>
        <mxCell id="ODThRyg3SfI3ghVe2F5W-32" value="import into mongodb&lt;br&gt;(Bash command)" style="rounded=1;whiteSpace=wrap;html=1;" parent="1" vertex="1">
          <mxGeometry x="720" y="310" width="120" height="60" as="geometry" />
        </mxCell>
        <mxCell id="ODThRyg3SfI3ghVe2F5W-34" value="Chưa có files" style="text;html=1;resizable=0;autosize=1;align=center;verticalAlign=middle;points=[];fillColor=none;strokeColor=none;rounded=0;" parent="1" vertex="1">
          <mxGeometry x="70" y="340" width="90" height="30" as="geometry" />
        </mxCell>
        <mxCell id="ODThRyg3SfI3ghVe2F5W-38" value="???" style="text;html=1;resizable=0;autosize=1;align=center;verticalAlign=middle;points=[];fillColor=none;strokeColor=none;rounded=0;" parent="1" vertex="1">
          <mxGeometry x="125" y="120" width="40" height="30" as="geometry" />
        </mxCell>
        <mxCell id="mj8e6IlXJ-SNM0Eoya5L-1" value="&lt;b&gt;Batch processing - Airflow chart&lt;br&gt;Google drive -&amp;gt; Local -&amp;gt; MongoDB -&amp;gt; Spark -&amp;gt; MongoDB&amp;nbsp;&lt;br&gt;&lt;/b&gt;" style="text;html=1;resizable=0;autosize=1;align=center;verticalAlign=middle;points=[];fillColor=none;strokeColor=none;rounded=0;" parent="1" vertex="1">
          <mxGeometry x="-155" y="60" width="350" height="40" as="geometry" />
        </mxCell>
        <mxCell id="mj8e6IlXJ-SNM0Eoya5L-2" style="edgeStyle=orthogonalEdgeStyle;rounded=0;orthogonalLoop=1;jettySize=auto;html=1;entryX=0;entryY=0.5;entryDx=0;entryDy=0;" parent="1" source="mj8e6IlXJ-SNM0Eoya5L-3" edge="1">
          <mxGeometry relative="1" as="geometry">
            <mxPoint x="30" y="630" as="targetPoint" />
          </mxGeometry>
        </mxCell>
        <mxCell id="mj8e6IlXJ-SNM0Eoya5L-3" value="Start" style="ellipse;whiteSpace=wrap;html=1;" parent="1" vertex="1">
          <mxGeometry x="-130" y="590" width="120" height="80" as="geometry" />
        </mxCell>
        <mxCell id="mj8e6IlXJ-SNM0Eoya5L-4" value="End" style="ellipse;whiteSpace=wrap;html=1;" parent="1" vertex="1">
          <mxGeometry x="850" y="590" width="120" height="80" as="geometry" />
        </mxCell>
        <mxCell id="mj8e6IlXJ-SNM0Eoya5L-5" style="edgeStyle=orthogonalEdgeStyle;rounded=0;orthogonalLoop=1;jettySize=auto;html=1;exitX=1;exitY=0.5;exitDx=0;exitDy=0;" parent="1" source="mj8e6IlXJ-SNM0Eoya5L-30" target="mj8e6IlXJ-SNM0Eoya5L-23" edge="1">
          <mxGeometry relative="1" as="geometry">
            <Array as="points">
              <mxPoint x="310" y="630" />
              <mxPoint x="310" y="630" />
            </Array>
            <mxPoint x="150" y="565" as="sourcePoint" />
            <mxPoint x="250" y="625" as="targetPoint" />
          </mxGeometry>
        </mxCell>
        <mxCell id="mj8e6IlXJ-SNM0Eoya5L-22" style="edgeStyle=orthogonalEdgeStyle;rounded=0;orthogonalLoop=1;jettySize=auto;html=1;entryX=0;entryY=0.5;entryDx=0;entryDy=0;" parent="1" source="mj8e6IlXJ-SNM0Eoya5L-23" target="mj8e6IlXJ-SNM0Eoya5L-26" edge="1">
          <mxGeometry relative="1" as="geometry" />
        </mxCell>
        <mxCell id="mj8e6IlXJ-SNM0Eoya5L-23" value="Spark readStream&lt;br&gt;&amp;nbsp;connect to kafka" style="rounded=1;whiteSpace=wrap;html=1;" parent="1" vertex="1">
          <mxGeometry x="370" y="600" width="120" height="60" as="geometry" />
        </mxCell>
        <mxCell id="mj8e6IlXJ-SNM0Eoya5L-34" style="edgeStyle=orthogonalEdgeStyle;rounded=0;orthogonalLoop=1;jettySize=auto;html=1;" parent="1" source="mj8e6IlXJ-SNM0Eoya5L-26" target="mj8e6IlXJ-SNM0Eoya5L-4" edge="1">
          <mxGeometry relative="1" as="geometry" />
        </mxCell>
        <mxCell id="mj8e6IlXJ-SNM0Eoya5L-26" value="Write to local then using Bash cmd to import/ &lt;br&gt;Write directly into mongodb" style="rounded=1;whiteSpace=wrap;html=1;" parent="1" vertex="1">
          <mxGeometry x="580" y="600" width="150" height="60" as="geometry" />
        </mxCell>
        <mxCell id="mj8e6IlXJ-SNM0Eoya5L-29" value="&lt;b&gt;Stream processing&lt;br&gt;&lt;/b&gt;" style="text;html=1;resizable=0;autosize=1;align=center;verticalAlign=middle;points=[];fillColor=none;strokeColor=none;rounded=0;" parent="1" vertex="1">
          <mxGeometry x="-60" y="500" width="130" height="30" as="geometry" />
        </mxCell>
        <mxCell id="mj8e6IlXJ-SNM0Eoya5L-30" value="Kafka" style="rounded=1;whiteSpace=wrap;html=1;" parent="1" vertex="1">
          <mxGeometry x="200" y="600" width="120" height="60" as="geometry" />
        </mxCell>
        <mxCell id="mj8e6IlXJ-SNM0Eoya5L-32" style="edgeStyle=orthogonalEdgeStyle;rounded=0;orthogonalLoop=1;jettySize=auto;html=1;entryX=0;entryY=0.5;entryDx=0;entryDy=0;" parent="1" source="mj8e6IlXJ-SNM0Eoya5L-31" target="mj8e6IlXJ-SNM0Eoya5L-30" edge="1">
          <mxGeometry relative="1" as="geometry" />
        </mxCell>
        <mxCell id="mj8e6IlXJ-SNM0Eoya5L-31" value="Which source? &lt;br&gt;(a local web, python script,... ???)" style="rounded=1;whiteSpace=wrap;html=1;" parent="1" vertex="1">
          <mxGeometry x="30" y="600" width="120" height="60" as="geometry" />
        </mxCell>
        <mxCell id="rC8EiHW_vvr1jEQaniJl-11" value="" style="rounded=0;whiteSpace=wrap;html=1;" vertex="1" parent="1">
          <mxGeometry x="30" y="720" width="740" height="300" as="geometry" />
        </mxCell>
        <mxCell id="rC8EiHW_vvr1jEQaniJl-12" value="" style="rounded=0;whiteSpace=wrap;html=1;" vertex="1" parent="1">
          <mxGeometry x="260" y="780" width="290" height="190" as="geometry" />
        </mxCell>
        <mxCell id="rC8EiHW_vvr1jEQaniJl-13" value="mongoDB" style="rounded=0;whiteSpace=wrap;html=1;" vertex="1" parent="1">
          <mxGeometry x="70" y="870" width="120" height="60" as="geometry" />
        </mxCell>
        <mxCell id="rC8EiHW_vvr1jEQaniJl-14" value="Spark" style="rounded=0;whiteSpace=wrap;html=1;" vertex="1" parent="1">
          <mxGeometry x="335" y="870" width="120" height="60" as="geometry" />
        </mxCell>
        <mxCell id="rC8EiHW_vvr1jEQaniJl-15" value="Hadoop" style="rounded=0;whiteSpace=wrap;html=1;" vertex="1" parent="1">
          <mxGeometry x="610" y="870" width="120" height="60" as="geometry" />
        </mxCell>
        <mxCell id="rC8EiHW_vvr1jEQaniJl-16" value="" style="endArrow=classic;html=1;rounded=0;exitX=0.992;exitY=0.4;exitDx=0;exitDy=0;exitPerimeter=0;entryX=0.017;entryY=0.4;entryDx=0;entryDy=0;entryPerimeter=0;" edge="1" parent="1" source="rC8EiHW_vvr1jEQaniJl-13" target="rC8EiHW_vvr1jEQaniJl-14">
          <mxGeometry width="50" height="50" relative="1" as="geometry">
            <mxPoint x="230" y="840" as="sourcePoint" />
            <mxPoint x="280" y="790" as="targetPoint" />
          </mxGeometry>
        </mxCell>
        <mxCell id="rC8EiHW_vvr1jEQaniJl-17" value="" style="endArrow=classic;html=1;rounded=0;exitX=1;exitY=0.5;exitDx=0;exitDy=0;entryX=0;entryY=0.5;entryDx=0;entryDy=0;" edge="1" parent="1" source="rC8EiHW_vvr1jEQaniJl-14" target="rC8EiHW_vvr1jEQaniJl-15">
          <mxGeometry width="50" height="50" relative="1" as="geometry">
            <mxPoint x="540" y="870" as="sourcePoint" />
            <mxPoint x="590" y="820" as="targetPoint" />
          </mxGeometry>
        </mxCell>
        <mxCell id="rC8EiHW_vvr1jEQaniJl-18" value="Airflow" style="rounded=0;whiteSpace=wrap;html=1;" vertex="1" parent="1">
          <mxGeometry x="335" y="750" width="120" height="60" as="geometry" />
        </mxCell>
        <mxCell id="rC8EiHW_vvr1jEQaniJl-19" value="Output" style="text;html=1;strokeColor=none;fillColor=none;align=center;verticalAlign=middle;whiteSpace=wrap;rounded=0;" vertex="1" parent="1">
          <mxGeometry x="640" y="830" width="60" height="30" as="geometry" />
        </mxCell>
        <mxCell id="rC8EiHW_vvr1jEQaniJl-20" value="Input" style="text;html=1;strokeColor=none;fillColor=none;align=center;verticalAlign=middle;whiteSpace=wrap;rounded=0;" vertex="1" parent="1">
          <mxGeometry x="90" y="830" width="60" height="30" as="geometry" />
        </mxCell>
        <mxCell id="rC8EiHW_vvr1jEQaniJl-21" value="ETL" style="text;html=1;strokeColor=none;fillColor=none;align=center;verticalAlign=middle;whiteSpace=wrap;rounded=0;" vertex="1" parent="1">
          <mxGeometry x="360" y="830" width="60" height="30" as="geometry" />
        </mxCell>
        <mxCell id="rC8EiHW_vvr1jEQaniJl-22" value="Schedule" style="text;html=1;strokeColor=none;fillColor=none;align=center;verticalAlign=middle;whiteSpace=wrap;rounded=0;" vertex="1" parent="1">
          <mxGeometry x="365" y="720" width="60" height="30" as="geometry" />
        </mxCell>
      </root>
    </mxGraphModel>
  </diagram>
</mxfile>
